<svg xmlns="http://www.w3.org/2000/svg" viewBox="0 0 100 100">
  <rect width="100" height="100" rx="18" fill="#25D366"/>
  <path d="M50 18C32.3 18 18 32.3 18 50c0 5.8 1.6 11.2 4.3 15.9L18 82l16.5-4.3C38.9 79.9 44.3 81.4 50 81.4c17.7 0 32-14.3 32-32S67.7 18 50 18zm15.8 43.5c-.7 1.9-3.4 3.5-4.7 3.7-.7.1-1.2.5-8.2-1.7-6.9-2.2-11.3-9.1-11.7-9.5-.4-.4-2.9-3.9-2.9-7.4s1.8-5.1 2.5-5.9c.7-.7 1.5-.9 2-.9H44c.5 0 1 .2 1.3 1 .4.8 1.5 3.6 1.6 3.9.1.3.2.6 0 1-.2.4-.3.6-.6 1-.3.4-.5.7-.8 1-.3.3-.6.6-.3 1.2.3.6 1.5 2.4 3.2 3.9 2.2 1.9 4 2.5 4.6 2.8.6.3 1 .2 1.3-.1l2.3-2.6c.4-.5.8-.4 1.3-.2.5.2 3.3 1.6 3.9 1.9.6.3 1 .4 1.1.6.2.6.1 2.3-.6 4.3z" fill="white"/>
</svg>
